<?xml version="1.0" encoding="utf-8"?>
<!-- Generator: Adobe Illustrator 16.0.4, SVG Export Plug-In . SVG Version: 6.00 Build 0)  -->
<!DOCTYPE svg PUBLIC "-//W3C//DTD SVG 1.1//EN" "http://www.w3.org/Graphics/SVG/1.1/DTD/svg11.dtd">
<svg version="1.1" id="Logo" xmlns="http://www.w3.org/2000/svg" xmlns:xlink="http://www.w3.org/1999/xlink" x="0px" y="0px"
	 width="211.101px" height="60px" viewBox="0 0 211.101 60" enable-background="new 0 0 211.101 60" xml:space="preserve">
<g>
	<path fill="#A5E291" d="M21.933,23.771v22.853H7.675V23.771H0.908V11.239h27.791v12.532H21.933z"/>
	<path fill="#A5E291" d="M51.416,32.766v13.858H37.64V32.766l-7.008-4.276V10.562l13.872,7.37l13.92-7.37v17.927L51.416,32.766z"/>
	<path fill="#A5E291" d="M75.629,11.239c7.491,0,13.243,6.093,13.243,13.464c0,7.423-5.944,13.566-13.243,13.566h-1.016v8.353H60.84
		V11.239H75.629z"/>
	<path fill="#A5E291" d="M126.04,28.933c0,10.171-8.071,18.379-18.076,18.379s-18.125-8.208-18.125-18.379
		c0-10.173,8.12-18.431,18.125-18.431S126.04,18.76,126.04,28.933z"/>
</g>
<path opacity="0.5" fill="#FFFFFF" enable-background="new    " d="M132.207,15.552v-4.51h4.213v4.51H132.207z M132.207,47.122
	V20.806h4.213v26.316H132.207z M141.327,47.122v-19.75c0-4.237,3.048-7.062,7.013-7.062h1.536c3.965,0,7.013,2.825,7.013,7.062
	v19.75h-4.212V27.125c0-1.883-1.264-3.023-2.85-3.023h-1.437c-1.586,0-2.85,1.14-2.85,3.023v19.998H141.327z M161.574,47.122v-36.08
	h4.212v36.08H161.574z M171.437,15.552v-4.51h4.212v4.51H171.437z M171.437,47.122V20.806h4.212v26.316H171.437z M182.613,47.122
	V24.274h-2.453v-3.469h2.453v-2.627c0-4.138,2.775-7.137,7.038-7.137h3.022l-0.718,3.841h-2.503c-1.834,0-2.677,1.165-2.677,2.825
	v3.098h3.99v3.469h-3.99v22.848H182.613z M200.853,47.617c-4.113,0-7.384-3.221-7.384-7.434V27.893c0-4.237,3.271-7.583,7.384-7.583
	h0.942c4.113,0,7.384,3.346,7.384,7.583v5.749l-11.374,2.453v4.609c0,1.883,1.264,3.122,2.999,3.122h1.264
	c1.734,0,3.022-1.239,3.022-3.122v-2.627h4.164v2.106c0,4.213-3.346,7.434-7.459,7.434H200.853z M197.805,32.626l7.236-1.562v-3.841
	c0-1.883-1.289-3.123-3.023-3.123h-1.214c-1.735,0-2.999,1.239-2.999,3.123V32.626z"/>
</svg>
