<?xml version="1.0" encoding="utf-8"?>
<!-- Generator: Adobe Illustrator 16.0.4, SVG Export Plug-In . SVG Version: 6.00 Build 0)  -->
<!DOCTYPE svg PUBLIC "-//W3C//DTD SVG 1.1//EN" "http://www.w3.org/Graphics/SVG/1.1/DTD/svg11.dtd">
<svg version="1.1" id="Layer_1" xmlns="http://www.w3.org/2000/svg" xmlns:xlink="http://www.w3.org/1999/xlink" x="0px" y="0px"
	 width="600px" height="600px" viewBox="-100 0 600 600" enable-background="new -100 0 600 600" xml:space="preserve">
<g id="Layer_2">
</g>
<path opacity="0.5" fill="#D4DBDE" enable-background="new    " d="M428.373,355.019c-3.038-4.462-9.115-5.611-13.578-2.573
	l-106.44,72.577l-23.646-31.642c-2.473-3.299-6.893-4.836-11.032-3.454c-5.172,1.724-7.974,7.313-6.254,12.489l19.352,58.142
	c0.732,2.167,1.93,4.298,3.542,6.105c6.403,7.149,17.387,7.761,24.542,1.365l1.265-1.128l110.707-99.095
	C430.424,364.581,431.167,359.115,428.373,355.019L428.373,355.019z M249.913,433.104H74.083V169.066H331.51v202.825
	c0,5.379,4.365,9.753,9.744,9.753c5.391,0,9.759-4.374,9.759-9.753V159.314c0-5.38-4.368-9.751-9.759-9.751H64.333
	c-5.385,0-9.746,4.37-9.746,9.751v283.522c0,5.385,4.365,9.754,9.746,9.754H249.91c5.384,0,9.747-4.365,9.747-9.754
	C259.663,437.46,255.298,433.104,249.913,433.104z M281.57,210.778H124.023c-5.384,0-9.751,4.363-9.751,9.747
	c0,5.386,4.368,9.751,9.751,9.751h157.542c5.391,0,9.755-4.365,9.755-9.751C291.319,215.144,286.957,210.778,281.57,210.778z
	 M281.57,252.921H124.023c-5.384,0-9.751,4.367-9.751,9.744c0,5.386,4.368,9.751,9.751,9.751h157.542
	c5.391,0,9.755-4.365,9.755-9.751C291.319,257.283,286.957,252.921,281.57,252.921z M281.57,295.06H124.023
	c-5.384,0-9.751,4.364-9.751,9.752c0,5.381,4.368,9.741,9.751,9.741h157.542c5.391,0,9.755-4.362,9.755-9.741
	C291.319,299.421,286.957,295.06,281.57,295.06z M291.319,346.949c0-5.389-4.362-9.748-9.749-9.748H124.023
	c-5.384,0-9.751,4.359-9.751,9.748c0,5.383,4.368,9.746,9.751,9.746h157.542C286.957,356.695,291.319,352.332,291.319,346.949z
	 M124.023,377.293c-5.384,0-9.751,4.363-9.751,9.741c0,5.391,4.368,9.751,9.751,9.751h78.762c5.391,0,9.754-4.361,9.754-9.751
	c0-5.381-4.363-9.741-9.754-9.741H124.023z M500,600h-600V0h600V600z"/>
</svg>
