<?xml version="1.0" encoding="utf-8"?>
<!-- Generator: Adobe Illustrator 25.0.1, SVG Export Plug-In . SVG Version: 6.00 Build 0)  -->
<svg version="1.1" id="Layer_1" xmlns="http://www.w3.org/2000/svg" xmlns:xlink="http://www.w3.org/1999/xlink" x="0px" y="0px"
	 viewBox="0 0 2966 550" style="enable-background:new 0 0 2966 550;" xml:space="preserve">
<style type="text/css">
	.st0{fill:#212B41;}
	.st1{fill:#F6F7F7;}
</style>
<path class="st0" d="M275,0L275,0c151.9,0,275,123.1,275,275l0,0c0,151.9-123.1,275-275,275l0,0C123.1,550,0,426.9,0,275l0,0
	C0,123.1,123.1,0,275,0z"/>
<path class="st1" d="M312.6,142H166v287.8h1l97.9-67.9h47.6c54,0,102.6-51.8,102.6-110.1C415.2,193.4,368.5,142,312.6,142z"/>
<path class="st0" d="M1245.6,180.9c-12.5-12.2-27.2-21.6-44.3-28.3c-17.1-6.9-35.7-10.3-55.8-10.3c-20.4,0-39.1,3.4-56.2,10.3
	c-17.1,6.6-32,16.2-44.7,28.6c-12.5,12.2-22.3,26.6-29.4,43.2c-6.9,16.3-10.3,34.3-10.3,53.9s3.4,37.7,10.3,54.2
	c7.1,16.3,16.9,30.7,29.4,43.2c12.7,12.2,27.6,21.8,44.7,28.7c17.3,6.6,36,9.9,56.2,9.9s38.7-3.3,55.8-9.9
	c17.1-6.9,31.8-16.4,44.3-28.7c12.7-12.2,22.5-26.6,29.4-43.2c7.1-16.6,10.7-34.6,10.7-54.2s-3.6-37.7-10.7-54.2
	C1268.2,207.5,1258.3,193.1,1245.6,180.9z M1249.1,322.6c-5.6,13.2-13.5,25-23.7,35.1c-9.9,9.9-21.8,17.7-35.5,23.3
	c-13.5,5.3-28.3,8-44.3,8c-16,0-30.9-2.7-44.7-8c-13.8-5.6-25.7-13.4-35.9-23.3c-9.9-10.2-17.8-22-23.7-35.5
	c-5.6-13.5-8.4-28.1-8.4-43.9c0-16,2.8-30.7,8.4-43.9c5.9-13.5,13.8-25.2,23.7-35.1c10.2-10.2,22.1-18,35.9-23.3
	c13.8-5.6,28.7-8.4,44.7-8.4c16,0,30.8,2.8,44.3,8.4c13.8,5.3,25.6,13.1,35.5,23.3c10.2,9.9,18.1,21.6,23.7,35.1
	c5.6,13.2,8.4,27.9,8.4,43.9S1254.7,309.1,1249.1,322.6z"/>
<polygon class="st0" points="2565.1,144.6 2565.1,412 2593.4,412 2593.4,298.5 2731.7,298.5 2731.7,274.1 2593.4,274.1 2593.4,169 
	2841.6,169 2841.6,412 2869.9,412 2869.9,169 2963.8,169 2963.8,144.6 "/>
<path class="st0" d="M932.1,155.7c-16.3-7.4-35.8-11.1-58.4-11.1H773.5V412h28.3v-84.4h71.8c22.7,0,42.1-3.7,58.4-11.1
	s28.8-17.8,37.4-31.3c8.9-13.8,13.4-30.1,13.4-48.9c0-19.4-4.5-35.8-13.4-49.3C960.9,173.2,948.4,162.8,932.1,155.7z M933.6,285.6
	c-13.8,11.5-34,17.2-60.7,17.2h-71.1V169h71.1c26.7,0,47,5.9,60.7,17.6c14,11.7,21,28.3,21,49.7
	C954.6,257.4,947.6,273.8,933.6,285.6z"/>
<path class="st0" d="M2212,316.5c16.3-7.4,28.8-17.8,37.4-31.3c8.9-13.8,13.4-30.1,13.4-48.9c0-19.4-4.5-35.8-13.4-49.3
	c-8.7-13.8-21.1-24.2-37.4-31.3c-16.3-7.4-35.8-11.1-58.4-11.1h-100.1V412h28.3v-84.8h71.8c7.5,0,14.7-0.4,21.6-1.2l60.9,86h30.9
	l-65.3-91.6C2205.3,319.2,2208.7,317.9,2212,316.5z M2152.8,303.1h-71.1V169h71.1c26.7,0,47,5.9,60.7,17.6c14,11.7,21,28.3,21,49.7
	c0,21.1-7,37.6-21,49.3C2199.8,297.3,2179.5,303.1,2152.8,303.1z"/>
<path class="st0" d="M1725.7,286.7c-9.7-5.3-20.4-9.7-32.1-13c-11.5-3.3-23.1-6.4-34.8-9.2c-11.7-2.8-22.5-6-32.5-9.5
	c-9.7-3.6-17.6-8.5-23.7-14.9c-5.9-6.4-8.8-14.8-8.8-25.2c0-9.2,2.4-17.3,7.3-24.4c5.1-7.4,12.9-13.2,23.3-17.6
	c10.4-4.3,23.7-6.5,39.7-6.5c12,0,24.3,1.8,37,5.3c13,3.6,25.2,9.2,36.7,16.8l9.6-22.5c-10.7-7.4-23.4-13.1-38.2-17.2
	c-14.8-4.3-29.7-6.5-44.7-6.5c-22.7,0-41.3,3.4-55.8,10.3c-14.5,6.6-25.3,15.5-32.5,26.7c-6.9,11-10.3,23-10.3,36.3
	c0,14.3,2.9,25.8,8.8,34.8c6.1,8.7,14,15.7,23.7,21c9.9,5.3,20.8,9.7,32.5,13c11.7,3.1,23.4,6,35.2,8.8c11.7,2.8,22.4,6.1,32.1,9.9
	c9.7,3.6,17.4,8.5,23.3,14.9c6.1,6.4,9.2,14.8,9.2,25.2c0,8.7-2.6,16.6-7.6,23.7c-4.8,7.1-12.6,12.9-23.3,17.2
	c-10.4,4.1-24.1,6.1-40.9,6.1c-17.6,0-34.4-3.1-50.4-9.2c-15.8-6.4-28.4-14.1-37.8-23.3l-11.1,21.8c9.9,10.2,23.9,18.6,42,25.2
	c18.3,6.4,37.4,9.5,57.3,9.5c22.9,0,41.6-3.3,56.1-9.9c14.8-6.9,25.7-15.8,32.9-26.7c7.1-11.2,10.7-23.3,10.7-36.3
	c0-14-3.1-25.3-9.2-34C1743.5,298.7,1735.6,291.8,1725.7,286.7z"/>
<polygon class="st0" points="2018.7,144.6 1986.3,144.6 1829.3,306.1 1829.3,144.6 1801,144.6 1801,412 1829.3,412 1829.3,341.7 
	1884,286.2 1993.1,412 2026.8,412 1903.1,265.8 "/>
<path class="st0" d="M1488.5,155.7c-16.3-7.4-35.8-11.1-58.4-11.1H1330V412h28.3v-84.4h71.8c22.7,0,42.2-3.7,58.4-11.1
	c16.3-7.4,28.8-17.8,37.4-31.3c8.9-13.8,13.4-30.1,13.4-48.9c0-19.4-4.5-35.8-13.4-49.3C1517.3,173.2,1504.8,162.8,1488.5,155.7z
	 M1490,285.6c-13.8,11.5-34,17.2-60.7,17.2h-71.1V169h71.1c26.7,0,47,5.9,60.7,17.6c14,11.7,21,28.3,21,49.7
	C1511.1,257.4,1504.1,273.8,1490,285.6z"/>
<path class="st0" d="M2389.9,144.6L2267.6,412h29.4l32-71.4h149.2l32,71.4h29.8l-122.2-267.4H2389.9z M2339.3,317.6l64.4-143.8
	l64.4,143.8H2339.3z"/>
</svg>
