<?xml version="1.0" encoding="utf-8"?>
<!-- Generator: Adobe Illustrator 16.0.4, SVG Export Plug-In . SVG Version: 6.00 Build 0)  -->
<!DOCTYPE svg PUBLIC "-//W3C//DTD SVG 1.1//EN" "http://www.w3.org/Graphics/SVG/1.1/DTD/svg11.dtd">
<svg version="1.1" id="Layer_1" xmlns="http://www.w3.org/2000/svg" xmlns:xlink="http://www.w3.org/1999/xlink" x="0px" y="0px"
	 width="120px" height="120px" viewBox="0 0 120 120" enable-background="new 0 0 120 120" xml:space="preserve">
<path fill="#E9EEF3" d="M120.152,60.077c0,33.178-26.897,60.076-60.076,60.076C26.897,120.152,0,93.255,0,60.077
	C0,26.897,26.897,0,60.076,0C93.255,0,120.152,26.897,120.152,60.077z M60.076,12.412c-26.324,0-47.665,21.34-47.665,47.665
	c0,26.324,21.34,47.664,47.665,47.664S107.74,86.4,107.74,60.077C107.74,33.752,86.4,12.412,60.076,12.412z"/>
<path fill="#E9EEF3" d="M44.205,33.752c0-1.65,1.171-2.329,2.604-1.509l45.875,26.266c1.432,0.82,1.432,2.162,0,2.981L46.809,87.758
	c-1.432,0.819-2.604,0.141-2.604-1.51V33.752z"/>
</svg>
